<?xml version="1.0" standalone="no"?>
<!DOCTYPE svg PUBLIC "-//W3C//DTD SVG 20010904//EN"
 "http://www.w3.org/TR/2001/REC-SVG-20010904/DTD/svg10.dtd">
<svg version="1.0" xmlns="http://www.w3.org/2000/svg"
 width="550.000000pt" height="550.000000pt" viewBox="0 0 550.000000 550.000000"
 preserveAspectRatio="xMidYMid meet">
<metadata>
Created by potrace 1.11, written by Peter Selinger 2001-2013
</metadata>
<g transform="translate(0.000000,550.000000) scale(0.100000,-0.100000)"
fill="#000000" stroke="none">
<path d="M3780 5327 c-145 -81 -148 -89 -75 -217 53 -94 68 -110 102 -110 48
0 208 100 217 136 7 27 -60 165 -101 210 -31 33 -56 30 -143 -19z"/>
<path d="M3150 5328 c-30 -17 -77 -43 -105 -58 -125 -67 -156 -99 -149 -153 5
-41 153 -306 181 -324 46 -30 84 -19 237 67 156 89 174 108 163 173 -6 38
-129 260 -165 300 -36 38 -89 36 -162 -5z"/>
<path d="M4499 5240 c-61 -32 -66 -45 -39 -96 14 -24 30 -46 38 -49 18 -7 89
30 101 53 7 14 2 29 -20 65 -16 26 -32 47 -37 47 -4 -1 -23 -9 -43 -20z"/>
<path d="M2175 4996 c-139 -45 -400 -207 -580 -361 -383 -326 -646 -755 -703
-1145 -16 -108 -5 -329 23 -480 9 -46 40 -151 71 -242 34 -99 156 -362 193
-416 73 -108 152 -233 161 -256 14 -38 12 -100 -6 -176 -9 -36 -17 -72 -19
-80 -2 -8 -28 -105 -59 -215 -60 -214 -71 -278 -54 -310 25 -45 57 -54 211
-60 111 -5 162 -23 186 -67 13 -22 13 -36 2 -91 -11 -57 -11 -69 3 -96 18 -34
78 -69 123 -73 l29 -2 -15 -43 c-14 -39 -14 -46 -1 -70 25 -44 62 -64 126 -69
34 -3 81 -16 111 -30 94 -45 141 -123 193 -324 45 -175 71 -219 130 -220 103
0 335 194 464 388 111 168 209 398 242 567 2 11 6 31 9 45 53 235 63 472 30
716 -26 197 -162 501 -231 518 -34 9 -75 -11 -365 -176 -171 -96 -274 -209
-295 -320 -18 -98 2 -229 52 -337 13 -30 23 -56 20 -58 -2 -2 -19 20 -38 49
-37 57 -74 147 -85 206 -11 62 -5 179 11 235 29 100 122 216 214 267 87 49
179 105 195 118 23 20 19 31 -76 191 -44 75 -86 152 -93 171 -19 55 -1 76 125
148 77 44 111 69 111 81 0 20 -82 175 -108 204 -22 25 -46 21 -116 -16 -355
-195 -377 -208 -450 -280 -106 -104 -167 -287 -130 -392 l14 -40 -142 -137
c-79 -76 -146 -138 -149 -138 -10 0 -32 129 -32 185 1 217 105 406 323 586 99
81 92 77 737 433 213 117 263 155 263 201 0 12 -25 73 -55 133 -30 61 -55 119
-55 129 0 41 38 79 132 130 52 29 108 55 124 58 43 8 81 -21 118 -90 138 -263
163 -294 239 -300 43 -3 64 6 259 114 184 101 195 145 87 336 -34 61 -69 124
-77 140 -31 63 -87 105 -137 105 -15 0 -101 -42 -193 -93 -92 -52 -180 -98
-197 -104 -63 -20 -105 11 -164 125 -78 149 -105 155 -270 61 -70 -39 -118
-74 -126 -89 -21 -41 -10 -85 45 -182 57 -100 67 -142 42 -175 -10 -12 -57
-45 -107 -74 -96 -55 -157 -70 -187 -46 -21 17 -197 328 -203 358 -9 46 20 72
167 153 269 148 295 165 313 207 12 25 16 51 12 73 -7 45 -202 392 -240 429
-33 31 -83 35 -152 13z"/>
<path d="M4150 4827 c-93 -53 -95 -65 -39 -165 55 -100 67 -104 160 -54 41 22
81 52 89 65 15 27 17 22 -60 162 -25 45 -60 44 -150 -8z"/>
<path d="M2750 4843 c-40 -15 -152 -88 -161 -105 -13 -24 -5 -48 43 -131 56
-97 67 -100 173 -42 116 63 119 72 60 181 -52 95 -73 113 -115 97z"/>
<path d="M3645 4841 c-19 -6 -88 -41 -130 -68 -11 -7 -30 -17 -41 -22 -27 -12
-54 -49 -54 -73 0 -21 94 -195 120 -222 28 -29 67 -22 160 30 106 58 130 80
130 115 0 15 -25 72 -57 128 -58 103 -83 125 -128 112z"/>
<path d="M3040 4555 c-25 -14 -60 -32 -78 -41 -36 -18 -50 -54 -34 -87 49 -98
81 -142 105 -145 36 -4 176 76 183 105 11 40 -80 193 -114 193 -10 0 -37 -11
-62 -25z"/>
<path d="M4527 4453 c-68 -37 -74 -53 -40 -115 41 -75 53 -79 121 -41 37 20
58 38 60 52 5 29 -55 131 -76 130 -9 0 -39 -12 -65 -26z"/>
<path d="M2281 4123 c-89 -52 -91 -58 -51 -134 56 -111 59 -112 161 -58 84 45
88 57 49 133 -38 72 -57 96 -79 96 -9 0 -45 -17 -80 -37z"/>
<path d="M3957 3975 c-79 -44 -99 -64 -92 -92 9 -39 75 -142 98 -155 12 -6 22
-11 22 -11 0 2 104 61 117 66 9 3 24 17 33 31 15 23 15 27 -11 78 -37 75 -71
117 -92 115 -11 0 -44 -15 -75 -32z"/>
<path d="M2880 3891 c-74 -39 -78 -50 -40 -116 17 -30 35 -57 40 -60 5 -3 36
8 70 25 43 22 60 36 60 50 0 25 -49 118 -66 124 -6 2 -35 -8 -64 -23z"/>
<path d="M3543 3504 c-120 -66 -124 -78 -52 -202 47 -81 60 -94 92 -94 31 0
184 88 198 113 13 25 7 43 -43 132 -64 115 -74 118 -195 51z"/>
<path d="M3020 3533 c-56 -20 -271 -149 -285 -170 -26 -39 -14 -85 46 -193 30
-52 61 -108 69 -124 8 -16 25 -36 38 -44 45 -29 82 -19 223 61 137 77 159 98
159 150 0 22 -5 34 -54 122 -16 28 -44 79 -64 114 -25 46 -44 67 -68 77 -36
15 -41 15 -64 7z"/>
<path d="M3169 2977 c-88 -45 -91 -54 -49 -132 43 -81 59 -87 133 -45 86 48
87 51 47 127 -19 36 -42 69 -51 74 -12 6 -36 -1 -80 -24z"/>
<path d="M3682 2963 c-35 -20 -66 -42 -69 -50 -7 -17 11 -59 48 -118 35 -56
52 -57 136 -8 80 47 80 50 16 165 -33 60 -45 61 -131 11z"/>
<path d="M2626 2837 c-120 -70 -123 -79 -61 -195 57 -107 84 -134 122 -123 57
17 188 97 203 124 14 26 13 31 -35 123 -76 145 -92 150 -229 71z"/>
<path d="M3131 2585 c-30 -19 -58 -41 -63 -49 -15 -27 62 -156 93 -156 27 0
127 58 139 80 7 13 2 33 -21 76 -50 96 -65 101 -148 49z"/>
</g>
</svg>
